<svg width="152" height="39" viewBox="0 0 152 39" fill="none" xmlns="http://www.w3.org/2000/svg">
<path fill-rule="evenodd" clip-rule="evenodd" d="M23.024 16.85H25.741C28.549 16.85 30.066 20.142 28.237 22.275L25.577 25.375C25.8651 27.2136 26.836 28.8759 28.296 30.03C29.7574 31.1847 31.6 31.7466 33.457 31.6039C35.3141 31.4613 37.0492 30.6244 38.317 29.26C39.5838 27.8961 40.2891 26.1044 40.292 24.243C40.2918 23.9192 40.3554 23.5985 40.4792 23.2993C40.6031 23.0001 40.7848 22.7283 41.0138 22.4994C41.2429 22.2705 41.5149 22.089 41.8142 21.9654C42.1135 21.8418 42.4342 21.7784 42.758 21.779C43.4117 21.7792 44.0386 22.0388 44.5011 22.5008C44.9636 22.9627 45.224 23.5893 45.225 24.243C45.2248 26.8289 44.4103 29.3491 42.897 31.446C41.764 33.0128 40.2789 34.2916 38.5612 35.1794C36.8436 36.0673 34.9414 36.5394 33.008 36.5577C31.0745 36.576 29.1638 36.1399 27.4297 35.2847C25.6956 34.4295 24.1865 33.179 23.024 31.634C21.8616 33.179 20.3525 34.4295 18.6184 35.2847C16.8842 36.1399 14.9735 36.576 13.0401 36.5577C11.1066 36.5394 9.20446 36.0673 7.48682 35.1794C5.76919 34.2916 4.28405 33.0128 3.15102 31.446C1.63737 29.3492 0.822497 26.829 0.822022 24.243C0.821759 23.9191 0.885411 23.5983 1.00933 23.299C1.13325 22.9998 1.31501 22.7279 1.54418 22.499C1.77336 22.2701 2.04545 22.0887 2.34486 21.9651C2.64427 21.8416 2.96512 21.7783 3.28902 21.779C3.94271 21.7792 4.56959 22.0388 5.0321 22.5008C5.49461 22.9627 5.75496 23.5893 5.75602 24.243C5.75325 26.1073 6.45555 27.9038 7.72202 29.272C8.66766 30.2934 9.88206 31.0275 11.2259 31.3902C12.5698 31.7529 13.9886 31.7294 15.3198 31.3224C16.6509 30.9155 17.8403 30.1415 18.7516 29.0894C19.6629 28.0373 20.2592 26.7495 20.472 25.374L17.81 22.274C15.982 20.142 17.498 16.851 20.31 16.851H23.024V16.85Z" fill="#9C9C9C"/>
<path d="M34.5349 10.28C35.1825 10.2805 35.8238 10.1534 36.4223 9.90602C37.0207 9.65862 37.5646 9.29574 38.0228 8.83811C38.481 8.38048 38.8445 7.83706 39.0927 7.23889C39.3408 6.64073 39.4686 5.99954 39.4689 5.35195C39.4686 4.70437 39.3408 4.06318 39.0927 3.46501C38.8445 2.86685 38.481 2.32343 38.0228 1.86579C37.5646 1.40816 37.0207 1.04528 36.4223 0.797886C35.8238 0.550491 35.1825 0.423426 34.5349 0.423952C33.8874 0.423558 33.2461 0.550719 32.6478 0.798173C32.0494 1.04563 31.5057 1.40853 31.0476 1.86615C30.5895 2.32377 30.2261 2.86714 29.978 3.46524C29.73 4.06334 29.6021 4.70445 29.6019 5.35195C29.6021 5.99945 29.73 6.64056 29.978 7.23866C30.2261 7.83676 30.5895 8.38014 31.0476 8.83776C31.5057 9.29538 32.0494 9.65828 32.6478 9.90573C33.2461 10.1532 33.8874 10.2803 34.5349 10.28ZM11.5119 10.28C12.1594 10.2803 12.8006 10.1532 13.399 9.90573C13.9973 9.65828 14.5411 9.29538 14.9991 8.83776C15.4572 8.38014 15.8207 7.83676 16.0687 7.23866C16.3168 6.64056 16.4446 5.99945 16.4449 5.35195C16.4446 4.70445 16.3168 4.06334 16.0687 3.46524C15.8207 2.86714 15.4572 2.32377 14.9991 1.86615C14.5411 1.40853 13.9973 1.04563 13.399 0.798173C12.8006 0.550719 12.1594 0.423558 11.5119 0.423952C10.8643 0.423426 10.223 0.550491 9.62449 0.797886C9.02602 1.04528 8.48216 1.40816 8.02397 1.86579C7.56578 2.32343 7.20223 2.86685 6.95411 3.46501C6.70599 4.06318 6.57814 4.70437 6.57788 5.35195C6.57814 5.99954 6.70599 6.64073 6.95411 7.23889C7.20223 7.83706 7.56578 8.38048 8.02397 8.83811C8.48216 9.29574 9.02602 9.65862 9.62449 9.90602C10.223 10.1534 10.8643 10.2805 11.5119 10.28ZM79.4449 1.62795C80.2049 1.62795 80.8289 1.84495 81.3169 2.27895C81.8049 2.71295 82.0489 3.28295 82.0489 3.98895V28.324C82.0489 29.057 81.8189 29.64 81.3569 30.074C80.8969 30.508 80.2859 30.725 79.5269 30.725C78.7669 30.725 78.1569 30.508 77.6949 30.075C77.2339 29.64 77.0029 29.057 77.0029 28.325V27.307C76.4059 28.419 75.5379 29.287 74.3979 29.911C73.2859 30.535 72.0109 30.847 70.5729 30.847C68.8629 30.847 67.3309 30.413 65.9749 29.545C64.6449 28.677 63.6009 27.456 62.8409 25.882C62.1079 24.282 61.7419 22.451 61.7419 20.389C61.7419 18.327 62.1079 16.523 62.8409 14.976C63.6009 13.43 64.6449 12.236 65.9749 11.395C67.3039 10.554 68.8369 10.133 70.5729 10.133C72.0109 10.133 73.2859 10.432 74.3989 11.029C75.4834 11.5987 76.3751 12.4766 76.9619 13.552V3.90695C76.9619 3.22895 77.1789 2.68595 77.6129 2.27895C78.0749 1.84495 78.6849 1.62795 79.4449 1.62795ZM71.9159 26.9C73.5439 26.9 74.7919 26.344 75.6599 25.231C76.5549 24.119 77.0029 22.531 77.0029 20.47C77.0029 18.408 76.5549 16.834 75.6599 15.75C74.7919 14.637 73.5579 14.08 71.9569 14.08C70.3289 14.08 69.0669 14.623 68.1719 15.709C67.2769 16.794 66.8289 18.354 66.8289 20.389C66.8289 22.451 67.2769 24.051 68.1719 25.191C69.0669 26.331 70.3149 26.9 71.9159 26.9ZM96.3569 30.847C94.3229 30.847 92.5319 30.427 90.9859 29.586C89.4659 28.745 88.2859 27.538 87.4449 25.964C86.6039 24.39 86.1829 22.559 86.1829 20.47C86.1829 18.381 86.6029 16.563 87.4449 15.017C88.2859 13.443 89.4659 12.236 90.9849 11.395C92.5319 10.554 94.3229 10.133 96.3569 10.133C98.3919 10.133 100.169 10.553 101.688 11.395C103.211 12.2116 104.447 13.4758 105.229 15.017C106.07 16.563 106.491 18.381 106.491 20.47C106.491 22.56 106.07 24.39 105.229 25.964C104.447 27.5051 103.211 28.7693 101.688 29.586C100.169 30.426 98.3919 30.847 96.3579 30.847H96.3569ZM96.3169 26.9C97.9719 26.9 99.2329 26.357 100.101 25.272C100.97 24.187 101.404 22.586 101.404 20.47C101.404 18.381 100.97 16.794 100.101 15.709C99.2329 14.596 97.9849 14.04 96.3569 14.04C94.7299 14.04 93.4669 14.596 92.5729 15.709C91.7049 16.794 91.2699 18.381 91.2699 20.47C91.2699 22.586 91.7039 24.187 92.5729 25.272C93.4409 26.357 94.6889 26.9 96.3169 26.9ZM127.538 10.215C128.298 10.215 128.908 10.432 129.369 10.865C129.831 11.3 130.061 11.883 130.061 12.615V28.69C130.061 31.81 129.193 34.1699 127.457 35.7719C125.72 37.3719 123.157 38.172 119.765 38.172C116.808 38.172 114.339 37.617 112.359 36.504C111.355 35.907 110.853 35.188 110.853 34.347C110.853 33.75 110.989 33.276 111.26 32.923C111.558 32.57 111.938 32.393 112.399 32.393C112.644 32.393 112.942 32.4479 113.295 32.5569C113.647 32.6919 114.014 32.842 114.393 33.004C115.243 33.3655 116.112 33.678 116.998 33.9399C117.785 34.1569 118.68 34.2659 119.684 34.2659C123.238 34.2659 125.015 32.53 125.015 29.056V26.452C124.418 27.565 123.55 28.432 122.411 29.057C121.271 29.654 119.969 29.952 118.504 29.952C116.767 29.952 115.221 29.545 113.864 28.732C112.535 27.89 111.491 26.724 110.731 25.232C109.971 23.739 109.591 22.017 109.591 20.063C109.591 18.11 109.958 16.387 110.69 14.895C111.45 13.375 112.508 12.209 113.864 11.395C115.221 10.554 116.767 10.133 118.504 10.133C119.969 10.133 121.271 10.445 122.411 11.069C123.521 11.6372 124.43 12.5321 125.015 13.633V12.575C125.015 11.87 125.246 11.3 125.707 10.865C126.168 10.432 126.779 10.215 127.538 10.215ZM119.847 26.005C121.475 26.005 122.736 25.475 123.631 24.418C124.554 23.359 125.015 21.908 125.015 20.063C125.015 18.191 124.554 16.726 123.631 15.668C122.736 14.61 121.475 14.081 119.847 14.081C118.246 14.081 116.984 14.61 116.062 15.668C115.14 16.726 114.678 18.191 114.678 20.063C114.678 21.908 115.14 23.359 116.062 24.418C116.984 25.476 118.246 26.005 119.847 26.005ZM142.533 30.847C139.576 30.847 137.189 30.264 135.371 29.097C134.503 28.582 134.069 27.849 134.069 26.9C134.069 26.357 134.218 25.923 134.516 25.598C134.815 25.245 135.181 25.068 135.615 25.068C136.076 25.068 136.714 25.286 137.528 25.72C138.396 26.127 139.183 26.439 139.888 26.656C140.621 26.873 141.543 26.981 142.655 26.981C143.795 26.981 144.677 26.791 145.301 26.411C145.952 26.031 146.277 25.503 146.277 24.824C146.277 24.364 146.142 23.997 145.87 23.726C145.626 23.454 145.165 23.21 144.487 22.993C143.835 22.749 142.832 22.478 141.475 22.179C139.061 21.691 137.324 20.999 136.266 20.104C135.235 19.209 134.72 17.9739 134.72 16.401C134.72 15.207 135.072 14.135 135.778 13.185C136.483 12.209 137.446 11.463 138.667 10.947C139.915 10.405 141.326 10.133 142.899 10.133C144.039 10.133 145.138 10.283 146.196 10.581C147.205 10.8312 148.167 11.2432 149.045 11.801C149.913 12.344 150.347 13.063 150.347 13.959C150.347 14.501 150.198 14.963 149.899 15.342C149.601 15.695 149.234 15.872 148.8 15.872C148.502 15.872 148.203 15.817 147.905 15.709C147.548 15.5272 147.195 15.3371 146.847 15.139C146.06 14.732 145.382 14.434 144.812 14.244C144.242 14.027 143.537 13.918 142.696 13.918C141.692 13.918 140.892 14.122 140.295 14.528C139.725 14.935 139.44 15.492 139.44 16.197C139.44 16.875 139.739 17.391 140.336 17.743C140.933 18.096 142.086 18.449 143.795 18.802C145.613 19.182 147.037 19.615 148.068 20.104C149.099 20.592 149.831 21.203 150.265 21.935C150.727 22.668 150.957 23.604 150.957 24.743C150.957 26.588 150.184 28.067 148.638 29.179C147.118 30.291 145.083 30.847 142.533 30.847Z" fill="#9C9C9C"/>
</svg>
