<svg width="165" height="38" viewBox="0 0 165 38" fill="none" xmlns="http://www.w3.org/2000/svg">
<g clip-path="url(#clip0_11_59)">
<path d="M2.70439 30.072C1.88744 30.072 1.22543 29.82 0.718354 29.316C0.239451 28.812 0 28.154 0 27.342V2.772C0 1.96 0.225366 1.33 0.676098 0.882C1.155 0.434 1.80293 0.21 2.61988 0.21H17.4518C19.1702 0.21 20.0294 0.938 20.0294 2.394C20.0294 3.822 19.1702 4.536 17.4518 4.536H5.36652V12.6H16.6066C18.3251 12.6 19.1843 13.328 19.1843 14.784C19.1843 16.212 18.3251 16.926 16.6066 16.926H5.36652V27.342C5.36652 28.154 5.12707 28.812 4.64817 29.316C4.16927 29.82 3.52134 30.072 2.70439 30.072ZM27.7814 30.072C27.0208 30.072 26.3869 29.862 25.8798 29.442C25.4009 28.994 25.1615 28.364 25.1615 27.552V2.478C25.1615 1.666 25.4009 1.05 25.8798 0.63C26.3869 0.21 27.0208 0 27.7814 0C28.542 0 29.1758 0.21 29.6829 0.63C30.19 1.05 30.4435 1.666 30.4435 2.478V27.552C30.4435 28.364 30.19 28.994 29.6829 29.442C29.1758 29.862 28.542 30.072 27.7814 30.072ZM52.2436 24.192C52.7225 24.192 53.1028 24.374 53.3845 24.738C53.6944 25.102 53.8494 25.592 53.8494 26.208C53.8494 27.076 53.3282 27.804 52.2859 28.392C51.3281 28.924 50.2435 29.358 49.0322 29.694C47.8208 30.002 46.6658 30.156 45.5672 30.156C42.243 30.156 39.6091 29.204 37.6653 27.3C35.7215 25.396 34.7496 22.792 34.7496 19.488C34.7496 17.388 35.1722 15.526 36.0173 13.902C36.8624 12.278 38.0456 11.018 39.5668 10.122C41.1162 9.226 42.8628 8.778 44.8066 8.778C46.6658 8.778 48.2856 9.184 49.666 9.996C51.0464 10.808 52.1169 11.956 52.8775 13.44C53.6381 14.924 54.0184 16.674 54.0184 18.69C54.0184 19.894 53.4831 20.496 52.4127 20.496H39.9471C40.1161 22.428 40.6655 23.856 41.5951 24.78C42.5247 25.676 43.8769 26.124 45.6517 26.124C46.5531 26.124 47.3419 26.012 48.018 25.788C48.7223 25.564 49.5111 25.256 50.3844 24.864C51.2295 24.416 51.8492 24.192 52.2436 24.192ZM44.9323 12.474C43.4956 12.474 42.3406 12.922 41.4673 13.818C40.6222 14.714 40.1151 16.002 39.9461 17.682H49.496C49.4396 15.974 49.0171 14.686 48.2283 13.818C47.4395 12.922 46.3409 12.474 44.9323 12.474ZM75.8427 25.956C76.3497 26.46 76.6033 27.034 76.6033 27.678C76.6033 28.294 76.3638 28.854 75.8849 29.358C75.406 29.834 74.8426 30.072 74.1947 30.072C73.4904 30.072 72.8847 29.778 72.3777 29.19L66.4195 22.638L60.4614 29.19C59.9262 29.75 59.3205 30.03 58.6444 30.03C58.0247 30.03 57.4753 29.792 56.9964 29.316C56.5175 28.84 56.2781 28.294 56.2781 27.678C56.2781 27.034 56.5316 26.46 57.0387 25.956L63.2081 19.278L57.3767 12.978C56.8697 12.474 56.6161 11.9 56.6161 11.256C56.6161 10.612 56.8556 10.066 57.3345 9.618C57.8134 9.142 58.3627 8.904 58.9825 8.904C59.6586 8.904 60.2642 9.184 60.7995 9.744L66.4195 15.876L72.0396 9.744C72.5748 9.184 73.1805 8.904 73.8566 8.904C74.5045 8.904 75.0539 9.142 75.5046 9.618C75.9835 10.066 76.223 10.612 76.223 11.256C76.223 11.9 75.9694 12.474 75.4623 12.978L69.631 19.278L75.8427 25.956ZM99.2203 14.532C100.939 15.008 102.263 15.876 103.192 17.136C104.15 18.396 104.629 19.936 104.629 21.756C104.629 24.276 103.714 26.25 101.882 27.678C100.08 29.106 97.5864 29.82 94.4031 29.82H83.5011C82.6841 29.82 82.0362 29.596 81.5573 29.148C81.1066 28.7 80.8812 28.07 80.8812 27.258V2.772C80.8812 1.96 81.1066 1.33 81.5573 0.882C82.0362 0.434 82.6841 0.21 83.5011 0.21H93.9796C97.0784 0.21 99.501 0.896 101.248 2.268C103.022 3.612 103.91 5.502 103.91 7.938C103.91 9.506 103.487 10.864 102.642 12.012C101.825 13.16 100.684 14 99.2193 14.532H99.2203ZM86.2055 12.684H93.0932C96.8399 12.684 98.7133 11.298 98.7133 8.526C98.7133 7.126 98.2484 6.09 97.3188 5.418C96.3892 4.746 94.9806 4.41 93.0932 4.41H86.2055V12.684ZM93.8116 25.62C95.7835 25.62 97.2202 25.27 98.1217 24.57C99.0231 23.87 99.4739 22.778 99.4739 21.294C99.4739 19.81 99.0091 18.704 98.0794 17.976C97.178 17.248 95.7553 16.884 93.8116 16.884H86.2055V25.62H93.8116ZM111.881 30.072C111.12 30.072 110.487 29.862 109.98 29.442C109.501 28.994 109.261 28.364 109.261 27.552V2.478C109.261 1.666 109.501 1.05 109.98 0.63C110.487 0.21 111.12 0 111.881 0C112.642 0 113.276 0.21 113.783 0.63C114.29 1.05 114.543 1.666 114.543 2.478V27.552C114.543 28.364 114.29 28.994 113.783 29.442C113.276 29.862 112.642 30.072 111.881 30.072ZM129.413 30.156C127.301 30.156 125.441 29.722 123.836 28.854C122.258 27.986 121.033 26.74 120.159 25.116C119.286 23.492 118.849 21.602 118.849 19.446C118.849 17.29 119.286 15.414 120.159 13.818C121.033 12.194 122.258 10.948 123.836 10.08C125.441 9.212 127.301 8.778 129.413 8.778C131.526 8.778 133.371 9.212 134.949 10.08C136.53 10.923 137.813 12.2277 138.625 13.818C139.498 15.414 139.935 17.29 139.935 19.446C139.935 21.602 139.498 23.492 138.625 25.116C137.813 26.7063 136.53 28.011 134.949 28.854C133.371 29.722 131.526 30.156 129.413 30.156ZM129.371 26.082C131.089 26.082 132.399 25.522 133.301 24.402C134.202 23.282 134.653 21.63 134.653 19.446C134.653 17.29 134.202 15.652 133.301 14.532C132.399 13.384 131.104 12.81 129.413 12.81C127.723 12.81 126.413 13.384 125.484 14.532C124.582 15.652 124.131 17.29 124.131 19.446C124.131 21.63 124.582 23.282 125.484 24.402C126.385 25.522 127.681 26.082 129.371 26.082ZM161.79 8.862C162.578 8.862 163.212 9.086 163.691 9.534C164.17 9.982 164.409 10.584 164.409 11.34V27.93C164.409 31.15 163.508 33.586 161.705 35.238C159.902 36.89 157.24 37.716 153.719 37.716C150.648 37.716 148.084 37.142 146.028 35.994C144.986 35.378 144.465 34.636 144.465 33.768C144.465 33.152 144.605 32.662 144.887 32.298C145.197 31.934 145.591 31.752 146.07 31.752C146.324 31.752 146.634 31.808 147 31.92C147.366 32.06 147.746 32.214 148.141 32.382C149.155 32.802 150.056 33.124 150.845 33.348C151.662 33.572 152.592 33.684 153.634 33.684C157.324 33.684 159.17 31.892 159.17 28.308V25.62C158.55 26.768 157.648 27.664 156.465 28.308C155.282 28.924 153.93 29.232 152.409 29.232C150.606 29.232 149 28.812 147.591 27.972C146.211 27.104 145.127 25.9 144.338 24.36C143.549 22.82 143.155 21.042 143.155 19.026C143.155 17.01 143.535 15.232 144.296 13.692C145.084 12.124 146.183 10.92 147.591 10.08C149 9.212 150.606 8.778 152.409 8.778C153.93 8.778 155.282 9.1 156.465 9.744C157.618 10.3302 158.562 11.2537 159.17 12.39V11.298C159.17 10.57 159.409 9.982 159.888 9.534C160.367 9.086 161.001 8.862 161.79 8.862ZM153.803 25.158C155.493 25.158 156.803 24.612 157.733 23.52C158.691 22.428 159.17 20.93 159.17 19.026C159.17 17.094 158.691 15.582 157.733 14.49C156.803 13.398 155.493 12.852 153.803 12.852C152.141 12.852 150.831 13.398 149.873 14.49C148.916 15.582 148.437 17.094 148.437 19.026C148.437 20.93 148.916 22.428 149.873 23.52C150.831 24.612 152.141 25.158 153.803 25.158Z" fill="#9C9C9C"/>
</g>
<defs>
<clipPath id="clip0_11_59">
<rect width="165" height="38" fill="white"/>
</clipPath>
</defs>
</svg>
