<svg width="197" height="34" viewBox="0 0 197 34" fill="none" xmlns="http://www.w3.org/2000/svg">
<g clip-path="url(#clip0_11_68)">
<path d="M21.7544 32.9551C20.5751 32.9866 19.4067 32.7221 18.3572 32.1861C17.3133 31.6538 16.4229 30.8657 15.7701 29.8961C13.7145 31.7746 11.0514 32.8596 8.26194 32.9551C3.2495 32.9551 0.532704 29.4911 1.45036 24.5251C2.1479 20.7911 5.26874 17.0491 6.14117 14.0451C4.4526 13.0371 1.94588 12.3351 0.770913 14.3951L0 13.9361C0.615122 11.6781 2.10167 10.1761 4.24957 10.1761C6.39747 10.1761 7.98554 11.4261 10.0329 10.2751H11.6662C10.7948 14.7731 8.59161 18.3711 7.41665 24.6691C6.70102 28.5291 8.03177 30.2831 10.2812 30.2831C11.9429 30.0798 13.4714 29.2758 14.576 28.0241C13.679 25.8277 13.2267 23.4768 13.2452 21.1061C13.2452 15.6361 15.8062 9.87009 20.102 9.87009C22.3052 9.87009 23.9385 11.3721 23.9385 14.9351C23.9385 18.4971 21.7363 24.0121 18.9271 27.4751C19.0788 28.3001 19.5201 29.0471 20.1734 29.5881C20.8267 30.1281 21.6519 30.4281 22.5072 30.4361C26.601 30.4361 29.4646 24.4161 29.4646 18.8481C29.4646 13.2801 27.0051 13.5311 27.2162 11.6511C27.2352 11.4162 27.3006 11.1873 27.4088 10.9776C27.5169 10.7679 27.6656 10.5815 27.8464 10.4291C28.2122 10.1191 28.6886 9.96409 29.1711 9.99609C30.4476 9.99609 32.1261 11.5791 32.1261 18.0031C32.1261 26.1891 27.6835 32.9551 21.7534 32.9551H21.7544ZM20.8277 12.6951C19.5512 12.6951 18.321 17.3101 18.1652 22.0781C18.1057 23.0977 18.1241 24.1203 18.2205 25.1371C20.1454 22.0182 21.3201 18.499 21.6529 14.8541C21.6439 13.2341 21.3413 12.6941 20.8267 12.6941L20.8277 12.6951ZM40.5348 32.7481C39.9995 32.8023 39.4587 32.7406 38.9497 32.5671C38.4426 32.3947 37.9795 32.1141 37.5928 31.7451C37.2086 31.3781 36.9106 30.9311 36.7204 30.4361C36.5305 29.9432 36.4536 29.4143 36.4953 28.8881C36.4953 26.6841 39.4151 15.6991 39.4151 13.8911C39.4151 13.0371 39.2131 12.5331 38.4421 12.5331C37.582 12.6704 36.7809 13.0548 36.1374 13.6391V12.0831C37.4738 10.877 39.1987 10.1849 41.0021 10.1311C41.5408 10.0834 42.0834 10.1516 42.5932 10.3311C43.1018 10.5111 43.5641 10.7961 43.9491 11.1691C44.333 11.5411 44.6306 11.9911 44.8195 12.4891C45.0075 12.9851 45.0839 13.5161 45.0406 14.0441C45.0406 16.2481 42.1228 27.1881 42.1228 28.9871C42.1228 29.8421 42.3238 30.3461 43.0958 30.3461C43.9443 30.2057 44.7397 29.8422 45.3995 29.2931V30.7951C44.0682 32.0093 42.3402 32.7031 40.5348 32.7481ZM44.1139 0.999089C44.514 0.987089 44.912 1.05909 45.2808 1.21309C45.6487 1.36709 45.9794 1.59709 46.2468 1.88809C46.5152 2.17687 46.7159 2.52128 46.8344 2.89651C46.9529 3.27175 46.9863 3.66846 46.9322 4.05809C46.8335 4.88999 46.4329 5.6574 45.8055 6.21609C45.1728 6.77989 44.358 7.09953 43.5089 7.11709C43.1093 7.12968 42.7117 7.0567 42.3429 6.90309C41.9754 6.75031 41.6455 6.52002 41.376 6.22809C41.1076 5.93931 40.9069 5.5949 40.7884 5.21967C40.6699 4.84443 40.6364 4.44772 40.6906 4.05809C40.7893 3.22621 41.19 2.45884 41.8173 1.90009C42.4502 1.33673 43.2649 1.01746 44.1139 1.00009V0.999089ZM55.4776 28.0341C55.2213 29.3921 55.3771 30.3371 56.35 30.3371C57.2016 30.2067 57.9995 29.8419 58.6537 29.2841L58.7452 30.7951C57.409 32.0015 55.684 32.694 53.8805 32.7481C50.7044 32.7481 49.4751 30.4901 49.9435 27.6831L53.0644 10.2751C54.1016 4.46309 53.7428 3.69809 50.5667 3.69809L50.7687 2.29509L60.3423 1.05309L55.4776 28.0331V28.0341ZM82.4003 27.9881C82.143 29.3471 82.2435 30.3461 83.2717 30.3461C84.1252 30.1874 84.9207 29.8053 85.5764 29.2391V30.7951C84.2488 32.0151 82.5185 32.7097 80.7117 32.7481C79.7978 32.814 78.8916 32.5412 78.1678 31.9821C77.4496 31.4285 76.9679 30.6257 76.8189 29.7341C76.0485 30.7326 75.0596 31.5434 73.9273 32.1051C72.7892 32.6705 71.5376 32.9733 70.2657 32.9911C64.1798 32.9911 61.6188 27.7281 62.7937 21.4031C63.9687 15.0791 69.4475 9.91509 75.644 9.91509C77.1089 9.88456 78.5579 10.2216 79.8574 10.8951L80.0132 10.0951C81.2253 3.90509 80.6655 3.69809 77.4893 3.69809L77.6451 2.29509L87.264 1.05309L82.3993 27.9891L82.4003 27.9881ZM75.7998 12.1821C72.2658 12.1821 69.9169 16.2931 68.9892 21.3581C68.0163 26.6751 68.6314 30.3551 71.9542 30.3551C74.2027 30.3551 76.7637 27.6551 77.5346 23.5351L79.4262 13.1001C78.3325 12.4506 77.0725 12.1317 75.7998 12.1821ZM98.5734 32.9991C91.4593 32.9991 89.5134 27.9791 90.3858 23.1661L92.7076 10.2751C93.7821 4.45509 93.4242 3.65309 90.2481 3.65309L90.4491 2.25009L100.051 1.05309L98.105 11.9841C99.6065 10.708 101.501 9.98112 103.475 9.92409C109.671 9.92409 112.58 15.0881 111.461 21.4121C110.341 27.7371 104.641 33.0001 98.5734 33.0001V32.9991ZM101.896 12.3081C100.864 12.3282 99.8645 12.6687 99.0367 13.2821C98.2151 13.8907 97.6094 14.7434 97.3069 15.7171L95.8747 23.8141C95.0022 28.6271 96.7471 30.5881 98.9503 30.5881C102.172 30.5881 104.173 27.0801 105.246 21.3131C106.201 16.1491 105.33 12.3351 101.887 12.3351L101.896 12.3081ZM121.163 24.3271C121.163 28.1871 123.054 30.2471 126.67 30.2471C128.506 30.2471 131.177 28.9971 132.866 27.3411L133.582 28.9421C132.365 30.2051 130.907 31.2141 129.293 31.9101C127.673 32.6089 125.93 32.9821 124.164 33.0081C118.795 33.0081 115.16 29.0951 115.16 23.7781C115.16 15.9061 121.814 9.93309 128.213 9.93309C132.105 9.93309 134.298 12.0381 134.298 14.4941C134.252 18.3081 130.563 22.5911 121.163 24.3271ZM127.763 12.2361C124.844 12.2361 122.035 16.4011 121.264 22.3661C127.147 20.9621 129.653 17.0491 129.708 14.5391C129.699 13.1361 129.029 12.2361 127.753 12.2361H127.763ZM155.181 32.7481C154.267 32.8139 153.361 32.5411 152.637 31.9821C151.919 31.4284 151.438 30.6256 151.289 29.7341C150.547 30.7322 149.581 31.5446 148.469 32.1071C147.351 32.6731 146.117 32.9753 144.863 32.9901C138.879 32.9901 136.318 27.7281 137.52 21.4031C138.722 15.0791 144.111 9.92309 150.325 9.92309C151.642 9.91646 152.947 10.1739 154.162 10.6801H159.999L156.869 27.9881C156.612 29.3471 156.714 30.3461 157.742 30.3461C158.595 30.1872 159.39 29.8051 160.045 29.2391V30.7951C158.718 32.015 156.988 32.7096 155.181 32.7481ZM150.472 12.1821C147.038 12.1821 144.634 16.2931 143.716 21.3581C142.743 26.6751 143.413 30.3551 146.469 30.3551C148.819 30.3551 151.334 27.5481 152.051 23.5351L153.941 13.1001C152.909 12.4506 151.701 12.1303 150.481 12.1821H150.472ZM177.908 15.8431C176.522 15.8431 176.163 14.7911 175.76 13.6841C175.622 13.1245 175.292 12.6306 174.826 12.2881C174.357 11.9427 173.782 11.7686 173.199 11.7951C172.442 11.7552 171.696 11.9952 171.106 12.4691C170.52 12.9382 170.133 13.6099 170.023 14.3501C169.867 15.7091 170.894 16.8601 172.84 18.5151L175.448 20.6201C176.416 21.3379 177.169 22.3064 177.623 23.4201C178.074 24.5301 178.208 25.7401 178.009 26.9181C177.347 30.6781 174.172 32.9901 169.922 32.9901C164.8 32.9901 161.532 30.0301 161.89 28.0241C161.973 27.4971 162.245 27.0141 162.657 26.6661C163.069 26.3161 163.594 26.1221 164.139 26.1171C165.47 26.1171 165.975 27.1161 166.388 28.4201C166.653 29.1701 167.163 29.8121 167.838 30.2481C168.516 30.6844 169.318 30.8891 170.124 30.8311C170.919 30.8686 171.701 30.613 172.319 30.1131C172.931 29.6174 173.334 28.9106 173.446 28.1331C173.648 26.3331 172.529 25.2271 170.427 23.3641L167.866 21.1601C166.966 20.4868 166.262 19.5869 165.828 18.5531C165.396 17.5244 165.25 16.3991 165.406 15.2951C165.865 12.8841 168.16 9.89709 173.437 9.89709C177.531 9.89709 180.092 12.1551 179.863 13.9631C179.837 14.4618 179.622 14.932 179.26 15.2781C178.898 15.6261 178.415 15.8281 177.908 15.8431ZM196.642 12.6951H191.676L189.272 26.0271C188.757 28.7891 189.17 30.0401 190.703 30.0401C191.52 30.0401 192.805 29.5901 194.641 27.7371L194.742 29.6891C193.908 30.6568 192.874 31.4344 191.711 31.9691C190.543 32.5068 189.273 32.7905 187.986 32.8011C184.508 32.8011 182.764 30.3911 183.59 25.9281L185.994 12.6951H182.111L182.415 10.6351H186.334L187.362 4.67009H193.09L192.016 10.6341H196.982L196.642 12.6941V12.6951Z" fill="#9C9C9C"/>
</g>
<defs>
<clipPath id="clip0_11_68">
<rect width="197" height="34" fill="white"/>
</clipPath>
</defs>
</svg>
