<svg width="32" height="32" fill="none" xmlns="http://www.w3.org/2000/svg"><g clip-path="url(#a)"><path d="M32 16c0-8.836-7.164-16-16-16S0 7.164 0 16c0 7.987 5.85 14.605 13.5 15.805v-11.18H9.437V16H13.5v-3.523c0-4.01 2.39-6.225 6.044-6.225 1.75 0 3.581.313 3.581.313v3.937h-2.018c-1.988 0-2.608 1.234-2.608 2.499v3h4.437l-.71 4.627H18.5v11.18C26.149 30.605 32 23.985 32 16Z" fill="url(#b)"/></g><defs><linearGradient id="b" x1="16" y1="0" x2="16" y2="31.807" gradientUnits="userSpaceOnUse"><stop stop-color="#FB0"/><stop offset="1" stop-color="#F2A50C"/></linearGradient><clipPath id="a"><path fill="#fff" d="M0 0h32v32H0z"/></clipPath></defs></svg>