<svg width="32" height="32" fill="none" xmlns="http://www.w3.org/2000/svg"><g clip-path="url(#a)"><path d="M31.33 8.521a4.021 4.021 0 0 0-2.829-2.848C26.007 5 16 5 16 5S5.993 5 3.497 5.673A4.023 4.023 0 0 0 .67 8.521C0 11.033 0 16.273 0 16.273s0 5.24.67 7.752a4.02 4.02 0 0 0 2.829 2.848c2.494.674 12.501.674 12.501.674s10.007 0 12.503-.674a4.02 4.02 0 0 0 2.829-2.848C32 21.513 32 16.273 32 16.273s0-5.24-.67-7.752Zm-18.603 12.51v-9.515l8.364 4.757-8.364 4.758Z" fill="url(#b)"/></g><defs><linearGradient id="b" x1="16" y1="5" x2="16" y2="27.547" gradientUnits="userSpaceOnUse"><stop stop-color="#FB0"/><stop offset="1" stop-color="#F2A50C"/></linearGradient><clipPath id="a"><path fill="#fff" d="M0 0h32v32H0z"/></clipPath></defs></svg>