<svg width="16" height="16" fill="none" xmlns="http://www.w3.org/2000/svg"><path d="M1.667 4.333c.366 0 .666-.3.666-.666V3A.67.67 0 0 1 3 2.333h.667c.366 0 .666-.3.666-.666 0-.367-.3-.667-.666-.667H3c-1.107 0-2 .893-2 2v.667c0 .366.3.666.667.666Zm2 10H3a.669.669 0 0 1-.667-.666V13A.668.668 0 0 0 1 13v.667c0 1.107.893 2 2 2h.667a.668.668 0 0 0 0-1.333v-.001ZM13.667 1h-.666c-.367 0-.667.3-.667.667 0 .366.3.666.667.666h.666c.367 0 .667.3.667.667v.667c0 .366.3.666.667.666.366 0 .666-.3.666-.666V3c0-1.107-.893-2-2-2Zm1.334 11.333c-.367 0-.667.3-.667.667v.667c0 .367-.3.667-.667.667h-.666c-.367 0-.667.3-.667.666 0 .367.3.667.667.667h.666c1.107 0 2-.893 2-2V13c0-.367-.3-.666-.666-.666v-.001Zm-2.002-2.086V6.42c0-.48-.253-.92-.666-1.153l-3.334-1.92a1.317 1.317 0 0 0-1.333 0L4.333 5.259c-.414.24-.667.68-.667 1.16v3.827c0 .48.253.92.667 1.153l3.333 1.92a1.317 1.317 0 0 0 1.333 0l3.335-1.919A1.32 1.32 0 0 0 13 10.247h-.001ZM7.666 11.78l-2.667-1.533V7.16l2.667 1.553v3.067Zm.667-4.22-2.64-1.54 2.64-1.52 2.64 1.52-2.64 1.54Zm3.333 2.687L8.999 11.78V8.713l2.667-1.553v3.087Z" fill="#9C9C9C"/></svg>