<svg width="32" height="32" fill="none" xmlns="http://www.w3.org/2000/svg"><path d="M26.281 13.026a1.334 1.334 0 0 0-.093 1.333c.33.772.564 1.583.693 2.413a10.667 10.667 0 0 1-.92 6.307 1.333 1.333 0 0 1-1.186.707H7.908a1.333 1.333 0 0 1-1.187-.72A10.667 10.667 0 0 1 17.668 7.772c.968.114 1.916.366 2.813.747a1.333 1.333 0 0 0 1.334-.093 1.334 1.334 0 0 0-.227-2.347A13.333 13.333 0 0 0 4.8 25.026a2.666 2.666 0 0 0 2.294 1.333H25.56a2.667 2.667 0 0 0 2.32-1.333 13.333 13.333 0 0 0 .734-11.854 1.334 1.334 0 0 0-2.334-.146Z" fill="url(#a)"/><path d="M14.108 14.81c-.496.716-.774 1.688-.774 2.702 0 .502.068.998.2 1.462.134.464.329.885.574 1.24.246.355.538.636.859.828.32.192.665.291 1.012.291.702 0 1.375-.402 1.871-1.119L25.333 4 14.109 14.81Z" fill="url(#b)"/><defs><linearGradient id="a" x1="16.333" y1="5" x2="16.333" y2="26.359" gradientUnits="userSpaceOnUse"><stop stop-color="#FB0"/><stop offset="1" stop-color="#F2A50C"/></linearGradient><linearGradient id="b" x1="19.334" y1="4" x2="19.334" y2="21.333" gradientUnits="userSpaceOnUse"><stop stop-color="#FB0"/><stop offset="1" stop-color="#F2A50C"/></linearGradient></defs></svg>